<?xml version="1.0" standalone="no"?><!DOCTYPE svg PUBLIC "-//W3C//DTD SVG 1.1//EN" "http://www.w3.org/Graphics/SVG/1.1/DTD/svg11.dtd"><svg t="1677217883953" class="icon" viewBox="0 0 1024 1024" version="1.1" xmlns="http://www.w3.org/2000/svg" p-id="35133" xmlns:xlink="http://www.w3.org/1999/xlink" width="200" height="200"><path d="M544 352v-128a32 32 0 0 0-64 0v128h-128a32 32 0 0 0 0 64h128v128a32 32 0 0 0 64 0v-128h128a32 32 0 1 0 0-64h-128zM128 0h768a128 128 0 0 1 128 128v512a128 128 0 0 1-128 128H128a128 128 0 0 1-128-128V128a128 128 0 0 1 128-128z m0 896h768a128 128 0 0 1-128 128H256a128 128 0 0 1-128-128z" fill="#b662e6" p-id="35134"></path></svg>