<?xml version="1.0" standalone="no"?><!DOCTYPE svg PUBLIC "-//W3C//DTD SVG 1.1//EN" "http://www.w3.org/Graphics/SVG/1.1/DTD/svg11.dtd"><svg t="1677316276779" class="icon" viewBox="0 0 1024 1024" version="1.1" xmlns="http://www.w3.org/2000/svg" p-id="8445" xmlns:xlink="http://www.w3.org/1999/xlink" width="200" height="200"><path d="M512.396531 336.037047c48.388009 0 87.947963-39.564048 87.947963-88.010385 0-48.3174-39.559955-87.877355-87.947963-87.877355-48.318424 0-87.9408 39.559955-87.9408 87.877355C424.456754 296.472999 464.078107 336.037047 512.396531 336.037047M512.396531 424.043339c-48.318424 0-87.9408 39.559955-87.9408 87.882472 0 48.446337 39.622376 88.005268 87.9408 88.005268 48.388009 0 87.947963-39.559955 87.947963-88.005268C600.344494 463.603293 560.784539 424.043339 512.396531 424.043339M512.396531 687.938394c-48.318424 0-87.9408 39.565071-87.9408 87.877355 0 48.45657 39.622376 88.006292 87.9408 88.006292 48.388009 0 87.947963-39.549722 87.947963-88.006292C600.344494 727.503465 560.784539 687.938394 512.396531 687.938394" fill="#ffffff" p-id="8446"></path></svg>